<svg xmlns="http://www.w3.org/2000/svg" viewBox="0 0 1024 1024" role="img" aria-labelledby="title desc">
  <title id="title">CLI Styles base icon</title>
  <desc id="desc">A light terminal card inspired by command-line icon sets.</desc>
  <defs>
    <linearGradient id="shell" x1="0%" y1="0%" x2="100%" y2="100%">
      <stop offset="0%" stop-color="#f8fafc" />
      <stop offset="100%" stop-color="#e9eef2" />
    </linearGradient>
    <linearGradient id="screen" x1="0%" y1="0%" x2="100%" y2="100%">
      <stop offset="0%" stop-color="#fbfdff" />
      <stop offset="100%" stop-color="#eef3f7" />
    </linearGradient>
  </defs>
  <rect x="86" y="102" width="852" height="820" rx="208" fill="url(#shell)" stroke="#152136" stroke-width="20" />
  <rect x="160" y="182" width="704" height="126" rx="62" fill="#182742" />
  <circle cx="252" cy="244" r="22" fill="#f87171" />
  <circle cx="314" cy="244" r="22" fill="#fbbf24" />
  <circle cx="376" cy="244" r="22" fill="#10b981" />
  <rect x="486" y="220" width="208" height="46" rx="23" fill="#11c5a2" opacity="0.9" />
  <rect x="188" y="358" width="648" height="428" rx="74" fill="url(#screen)" stroke="#c8d3dd" stroke-width="12" />
  <path d="M300 486 428 572 300 658" fill="none" stroke="#132238" stroke-linecap="round" stroke-linejoin="round" stroke-width="48" />
  <rect x="490" y="500" width="216" height="34" rx="17" fill="#24354e" />
  <rect x="490" y="566" width="172" height="34" rx="17" fill="#6e8196" />
  <rect x="490" y="632" width="256" height="34" rx="17" fill="#11c5a2" />
  <rect x="730" y="418" width="42" height="286" rx="21" fill="#d8e2ea" />
  <rect x="742" y="452" width="18" height="92" rx="9" fill="#86d0ff" />
  <rect x="742" y="570" width="18" height="54" rx="9" fill="#132238" />
  <rect x="742" y="646" width="18" height="30" rx="9" fill="#11c5a2" />
</svg>
